<?xml version="1.0" encoding="utf-8"?>
<!-- Generator: Adobe Illustrator 16.0.0, SVG Export Plug-In . SVG Version: 6.00 Build 0)  -->
<!DOCTYPE svg PUBLIC "-//W3C//DTD SVG 1.1//EN" "http://www.w3.org/Graphics/SVG/1.1/DTD/svg11.dtd">
<svg version="1.1" id="Layer_1" xmlns="http://www.w3.org/2000/svg" xmlns:xlink="http://www.w3.org/1999/xlink" x="0px" y="0px"
	 width="24px" height="24px" viewBox="0 0 24 24" enable-background="new 0 0 24 24" xml:space="preserve">
<path fill="#FFFFFF" d="M18.5,15c-2.484,0-4.5,2.016-4.5,4.5s2.016,4.5,4.5,4.5s4.5-2.016,4.5-4.5S20.984,15,18.5,15z M18.5,17
	l2.5,3h-2v2h-1v-2h-2L18.5,17z M12.154,20.895c-0.918,0.506-1.996,0.838-3.154,1V24H7v-1.996c-2.069-0.037-4.213-0.529-6-1.453
	l0.909-3.289c1.912,0.742,4.457,1.53,6.45,1.079c2.299-0.521,2.769-2.885,0.229-4.021c-1.863-0.867-7.557-1.611-7.557-6.487
	c0-2.725,2.078-5.165,5.969-5.7V0h2v2.036c1.447,0.038,3.071,0.29,4.885,0.841L13.16,6.172c-1.535-0.539-3.232-1.029-4.885-0.929
	c-2.979,0.174-3.24,2.752-1.162,3.832c2.854,1.342,6.425,2.401,7.534,5.202C12.622,15.775,11.589,18.316,12.154,20.895z"/>
</svg>
