<?xml version="1.0" standalone="no"?>
<!DOCTYPE svg PUBLIC "-//W3C//DTD SVG 20010904//EN"
 "http://www.w3.org/TR/2001/REC-SVG-20010904/DTD/svg10.dtd">
<svg version="1.0" xmlns="http://www.w3.org/2000/svg"
 width="900.000000pt" height="900.000000pt" viewBox="0 0 900.000000 900.000000"
 preserveAspectRatio="xMidYMid meet">
<metadata>
Created by potrace 1.10, written by Peter Selinger 2001-2011
</metadata>
<g transform="translate(0.000000,900.000000) scale(0.100000,-0.100000)"
fill="#000000" stroke="none">
<path d="M7685 7858 c-198 -36 -343 -94 -488 -195 -63 -45 -512 -488 -1960
-1935 -1033 -1033 -1886 -1878 -1895 -1878 -9 0 -352 335 -762 744 -484 482
-767 758 -808 786 -71 47 -211 118 -257 131 -212 58 -215 59 -391 59 -176 1
-228 -6 -373 -51 -267 -82 -504 -286 -633 -544 -56 -110 -74 -164 -107 -308
-14 -61 -14 -339 0 -409 35 -180 103 -335 206 -472 74 -99 2376 -2397 2463
-2460 90 -65 126 -85 222 -126 231 -100 500 -116 753 -47 162 45 316 133 459
263 191 174 4603 4599 4655 4668 90 121 166 292 191 431 5 27 16 55 25 61 22
16 23 354 1 354 -10 0 -17 16 -21 48 -4 26 -20 86 -36 134 -117 350 -391 614
-744 714 -140 40 -377 55 -500 32z m333 -568 c192 -60 315 -180 384 -375 12
-36 17 -80 17 -160 0 -117 -9 -155 -64 -270 -26 -54 -265 -297 -2354 -2386
-2178 -2178 -2330 -2328 -2391 -2356 -89 -43 -177 -63 -270 -63 -93 0 -160 16
-256 60 -66 31 -115 78 -1250 1213 -1256 1258 -1206 1203 -1255 1349 -29 87
-27 245 5 332 65 181 188 303 362 362 181 61 382 21 534 -105 30 -25 422 -412
870 -859 448 -448 830 -824 850 -837 57 -36 129 -49 196 -35 32 7 74 23 93 35
20 13 909 897 1976 1965 1067 1068 1973 1970 2013 2005 78 68 111 87 212 121
88 30 238 32 328 4z"/>
</g>
</svg>
