<?xml version="1.0" standalone="no"?>
<!DOCTYPE svg PUBLIC "-//W3C//DTD SVG 20010904//EN"
 "http://www.w3.org/TR/2001/REC-SVG-20010904/DTD/svg10.dtd">
<svg version="1.0" xmlns="http://www.w3.org/2000/svg"
 width="225.000000pt" height="225.000000pt" viewBox="0 0 225.000000 225.000000"
 preserveAspectRatio="xMidYMid meet">
<metadata>
Created by potrace 1.10, written by Peter Selinger 2001-2011
</metadata>
<g transform="translate(0.000000,225.000000) scale(0.100000,-0.100000)"
fill="#000000" stroke="none">
<path d="M738 1979 c-15 -11 -43 -42 -63 -69 l-36 -50 -182 -2 -182 -3 -3 -66
-3 -66 -44 -5 c-103 -12 -174 -85 -194 -201 -15 -87 -15 -957 0 -1029 15 -69
39 -115 84 -160 79 -79 2 -73 1010 -73 1008 0 931 -6 1010 73 91 91 95 120 95
669 0 507 -4 558 -54 630 -52 78 -82 87 -288 91 l-177 3 -81 114 c-44 63 -94
125 -111 139 l-31 26 -361 0 c-347 -1 -363 -1 -389 -21z m739 -91 c11 -13 53
-69 93 -126 39 -56 82 -109 93 -117 17 -12 57 -15 190 -15 199 0 224 -7 259
-72 l23 -43 0 -510 c0 -503 0 -511 -22 -550 -26 -48 -68 -90 -106 -104 -39
-15 -1725 -15 -1764 0 -38 14 -80 56 -106 104 -22 39 -22 47 -22 550 0 496 1
511 21 550 34 67 62 75 259 75 136 0 175 3 192 15 12 9 50 55 84 103 35 48 76
104 92 125 l29 37 332 0 c332 0 333 0 353 -22z m-919 -140 c-14 -21 -25 -23
-107 -26 l-91 -3 0 26 0 25 106 0 106 0 -14 -22z"/>
<path d="M1020 1559 c-224 -31 -418 -214 -466 -438 -17 -84 -17 -138 1 -226
55 -261 279 -445 542 -445 162 0 283 50 399 165 135 134 192 321 153 507 -27
131 -131 281 -246 354 -105 68 -256 101 -383 83z m234 -109 c125 -42 238 -151
286 -277 34 -86 38 -212 11 -300 -11 -37 -31 -85 -44 -107 -43 -69 -128 -145
-206 -184 -65 -32 -84 -37 -168 -40 -117 -5 -199 14 -281 68 -256 166 -295
501 -85 721 126 133 312 178 487 119z"/>
<path d="M978 1347 c-151 -64 -237 -199 -226 -357 19 -256 286 -409 517 -298
25 12 69 46 98 74 68 71 96 142 97 249 1 70 -3 89 -31 147 -37 79 -94 137
-171 175 -80 39 -203 44 -284 10z m257 -61 c61 -28 117 -83 147 -145 33 -65
32 -197 0 -258 -35 -66 -78 -110 -140 -140 -120 -59 -272 -28 -361 73 -115
131 -89 345 54 444 91 62 200 72 300 26z"/>
<path d="M1807 1498 c-40 -31 -40 -103 1 -134 28 -22 80 -17 107 11 51 50 17
135 -54 135 -20 0 -45 -6 -54 -12z"/>
</g>
</svg>
