<?xml version="1.0" standalone="no"?>
<!DOCTYPE svg PUBLIC "-//W3C//DTD SVG 20010904//EN"
 "http://www.w3.org/TR/2001/REC-SVG-20010904/DTD/svg10.dtd">
<svg version="1.0" xmlns="http://www.w3.org/2000/svg"
 width="288.000000pt" height="288.000000pt" viewBox="0 0 288.000000 288.000000"
 preserveAspectRatio="xMidYMid meet">
<metadata>
Created by potrace 1.10, written by Peter Selinger 2001-2011
</metadata>
<g transform="translate(0.000000,288.000000) scale(0.100000,-0.100000)"
fill="#000000" stroke="none">
<path d="M485 2682 c-14 -9 -70 -83 -78 -102 -4 -8 -16 -28 -27 -45 -47 -72
-54 -93 -40 -120 7 -14 23 -25 34 -26 12 -1 32 -2 46 -2 l25 -2 5 -157 c4
-130 8 -161 22 -178 21 -23 46 -26 74 -6 18 14 19 29 19 316 0 287 -1 302 -19
316 -22 15 -45 18 -61 6z"/>
<path d="M886 2425 c-9 -13 -16 -29 -16 -35 0 -6 7 -22 16 -35 l16 -25 800 0
c499 0 806 4 818 10 26 14 34 57 15 86 l-15 24 -809 0 -809 0 -16 -25z"/>
<path d="M433 1973 c-37 -7 -109 -96 -117 -143 -9 -57 10 -94 50 -98 35 -3 60
24 71 78 16 83 133 59 133 -26 0 -57 -37 -119 -130 -217 -113 -119 -119 -129
-98 -164 l17 -28 173 -3 c194 -3 211 2 211 56 0 52 -16 62 -103 62 -42 0 -80
3 -83 7 -4 3 9 25 27 48 126 153 144 288 51 380 -50 51 -112 65 -202 48z"/>
<path d="M886 1705 c-9 -13 -16 -29 -16 -35 0 -6 7 -22 16 -35 l16 -25 800 0
c499 0 806 4 818 10 26 14 34 57 15 86 l-15 24 -809 0 -809 0 -16 -25z"/>
<path d="M886 985 c-9 -13 -16 -29 -16 -35 0 -6 7 -22 16 -35 l16 -25 800 0
c499 0 806 4 818 10 26 14 34 57 15 86 l-15 24 -809 0 -809 0 -16 -25z"/>
<path d="M886 265 c-9 -13 -16 -29 -16 -35 0 -6 7 -22 16 -35 l16 -25 800 0
c499 0 806 4 818 10 26 14 34 57 15 86 l-15 24 -809 0 -809 0 -16 -25z"/>
</g>
</svg>
