<?xml version="1.0" standalone="no"?>
<!DOCTYPE svg PUBLIC "-//W3C//DTD SVG 20010904//EN"
 "http://www.w3.org/TR/2001/REC-SVG-20010904/DTD/svg10.dtd">
<svg version="1.0" xmlns="http://www.w3.org/2000/svg"
 width="216.000000pt" height="216.000000pt" viewBox="0 0 216.000000 216.000000"
 preserveAspectRatio="xMidYMid meet">
<metadata>
Created by potrace 1.10, written by Peter Selinger 2001-2011
</metadata>
<g transform="translate(0.000000,216.000000) scale(0.100000,-0.100000)"
fill="#000000" stroke="none">
<path d="M290 2145 c0 -8 -12 -18 -27 -21 -107 -27 -197 -118 -252 -257 -16
-39 -16 -1555 0 -1594 59 -147 115 -203 262 -262 39 -16 1555 -16 1594 0 139
55 230 145 257 251 3 16 13 28 21 28 13 0 15 98 15 780 0 682 -2 780 -15 780
-8 0 -18 12 -21 28 -26 103 -143 220 -246 246 -16 3 -28 13 -28 21 0 13 -98
15 -780 15 -682 0 -780 -2 -780 -15z m1548 -99 c15 -8 36 -18 47 -22 14 -5 -1
-10 -49 -15 l-69 -8 -73 -72 -74 -73 -45 12 c-32 9 -177 12 -509 12 -498 0
-497 0 -604 -55 -43 -22 -125 -104 -147 -147 -54 -105 -55 -115 -55 -518 0
-404 1 -412 56 -520 23 -45 99 -121 144 -144 110 -56 106 -56 610 -56 504 0
500 0 610 56 45 23 121 99 144 144 55 108 56 116 56 520 0 350 -1 381 -20 435
-11 32 -25 64 -31 72 -13 14 -11 17 64 96 40 42 67 95 67 133 0 13 -9 40 -20
60 -12 20 -19 38 -17 41 13 12 95 -88 115 -140 l22 -59 0 -728 c0 -728 0 -728
-22 -787 -15 -39 -39 -75 -73 -108 -33 -34 -69 -58 -108 -73 -59 -22 -59 -22
-787 -22 -728 0 -728 0 -787 22 -78 30 -151 103 -181 181 -22 59 -22 59 -22
787 0 728 0 728 22 787 29 76 103 151 178 180 54 21 63 22 793 22 621 1 743
-1 765 -13z m22 -141 c10 -12 8 -21 -9 -49 -26 -42 -42 -49 -70 -30 -26 19
-27 38 -2 63 33 33 62 39 81 16z m-334 -126 c3 -6 -79 -97 -189 -207 -107
-108 -201 -210 -210 -227 -8 -16 -27 -54 -41 -82 -15 -29 -30 -53 -34 -53 -21
1 -44 28 -71 85 -5 11 -21 37 -35 58 -14 21 -26 40 -26 43 0 18 -47 64 -66 64
-32 0 -39 -12 -101 -175 -9 -22 -21 -53 -28 -70 -7 -16 -20 -49 -29 -72 -30
-81 -49 -128 -61 -158 -7 -16 -21 -50 -30 -75 -9 -25 -23 -58 -30 -75 -21 -48
-26 -84 -15 -105 10 -20 23 -20 511 -20 l499 0 11 24 c12 26 0 57 -76 191 -18
33 -45 83 -59 110 -14 28 -42 79 -61 114 -30 53 -33 66 -23 79 35 41 380 382
387 382 5 0 16 -18 25 -40 14 -35 16 -94 16 -409 0 -357 -1 -371 -22 -428 -30
-78 -103 -151 -181 -181 -58 -22 -68 -22 -517 -22 -449 0 -459 0 -517 22 -78
30 -151 103 -181 181 -21 57 -22 71 -22 427 0 356 1 370 22 427 29 76 103 151
178 180 53 21 69 22 512 22 318 1 459 -2 464 -10z m184 -9 c11 -11 20 -25 20
-30 0 -17 -81 -100 -98 -100 -17 0 -52 28 -52 41 0 10 92 107 103 108 4 1 16
-8 27 -19z m-178 -177 c10 -9 18 -23 18 -31 0 -19 -169 -192 -189 -192 -16 0
-51 28 -51 41 0 10 183 197 194 198 5 1 18 -6 28 -16z m-270 -270 c24 -22 23
-38 -4 -55 -65 -43 -83 -29 -50 36 19 40 28 43 54 19z m-372 -45 c13 -30 56
-103 91 -156 16 -24 29 -45 29 -48 0 -14 46 -64 59 -64 16 0 77 29 126 60 27
17 93 50 100 50 2 0 13 -19 25 -42 12 -24 35 -65 50 -93 15 -27 38 -69 50 -93
12 -23 26 -45 31 -48 5 -3 9 -14 9 -25 0 -18 -11 -19 -393 -19 -217 0 -396 3
-400 6 -3 3 6 34 20 67 14 34 32 80 40 102 8 22 21 54 28 70 7 17 20 50 30 75
9 25 23 60 31 78 8 18 14 38 14 45 0 13 36 57 46 57 2 0 9 -10 14 -22z"/>
</g>
</svg>
